<!--?xml version="1.0" standalone="no"?-->
              <svg id="sw-js-blob-svg" viewBox="0 0 100 100" xmlns="http://www.w3.org/2000/svg" version="1.1">
                    <defs> 
                        <linearGradient id="sw-gradient" x1="0" x2="1" y1="1" y2="0">
                            <stop id="stop1" stop-color="rgba(47, 165, 213, 1)" offset="0%"></stop>
                            <stop id="stop2" stop-color="rgba(237, 246, 252, 1)" offset="100%"></stop>
                        </linearGradient>
                    </defs>
                <path fill="url(#sw-gradient)" d="M27.5,-33.9C34,-27.3,36.5,-17.1,37.9,-7C39.3,3.1,39.5,13,35.2,20C30.8,27,21.8,31.1,13.1,33C4.4,34.8,-4,34.4,-11,31.3C-17.9,28.2,-23.5,22.5,-27.3,15.8C-31,9.1,-33,1.5,-31.5,-5.3C-29.9,-12,-24.9,-17.9,-19.1,-24.6C-13.3,-31.4,-6.6,-39.1,1.9,-41.4C10.5,-43.7,21,-40.6,27.5,-33.9Z" width="100%" height="100%" transform="translate(50 50)" stroke-width="0" style="transition: all 0.3s ease 0s;"></path>
              </svg>